<?xml version="1.0" encoding="UTF-8" standalone="no"?>
<!-- Created with Inkscape (http://www.inkscape.org/) -->

<svg
   width="202.15784mm"
   height="156.10419mm"
   viewBox="0 0 202.15784 156.10419"
   version="1.1"
   id="svg1"
   inkscape:version="1.3 (0e150ed6c4, 2023-07-21)"
   sodipodi:docname="sketch_background.svg"
   xmlns:inkscape="http://www.inkscape.org/namespaces/inkscape"
   xmlns:sodipodi="http://sodipodi.sourceforge.net/DTD/sodipodi-0.dtd"
   xmlns:xlink="http://www.w3.org/1999/xlink"
   xmlns="http://www.w3.org/2000/svg"
   xmlns:svg="http://www.w3.org/2000/svg">
  <sodipodi:namedview
     id="namedview1"
     pagecolor="#505050"
     bordercolor="#ffffff"
     borderopacity="1"
     inkscape:showpageshadow="0"
     inkscape:pageopacity="0"
     inkscape:pagecheckerboard="1"
     inkscape:deskcolor="#4b4b4b"
     inkscape:document-units="mm"
     showgrid="true"
     inkscape:zoom="0.88194444"
     inkscape:cx="231.87402"
     inkscape:cy="369.6378"
     inkscape:window-width="1920"
     inkscape:window-height="940"
     inkscape:window-x="1080"
     inkscape:window-y="587"
     inkscape:window-maximized="1"
     inkscape:current-layer="layer1"
     showguides="true">
    <inkscape:grid
       id="grid1"
       units="px"
       originx="-13.692689"
       originy="-10"
       spacingx="0.26458333"
       spacingy="0.26458334"
       empcolor="#ffffff"
       empopacity="0.30196078"
       color="#000000"
       opacity="0.14901961"
       empspacing="5"
       dotted="false"
       gridanglex="30"
       gridanglez="30"
       visible="true" />
  </sodipodi:namedview>
  <defs
     id="defs1">
    <linearGradient
       id="linearGradient9"
       inkscape:collect="always">
      <stop
         style="stop-color:#ffabab;stop-opacity:1;"
         offset="0"
         id="stop7" />
      <stop
         style="stop-color:#cd1515;stop-opacity:1;"
         offset="0.51576906"
         id="stop8" />
      <stop
         style="stop-color:#5e0000;stop-opacity:1;"
         offset="1"
         id="stop9" />
    </linearGradient>
    <linearGradient
       id="linearGradient23"
       inkscape:collect="always">
      <stop
         style="stop-color:#000000;stop-opacity:0.40302417;"
         offset="0"
         id="stop22" />
      <stop
         style="stop-color:#000000;stop-opacity:0.43714175;"
         offset="1"
         id="stop23" />
    </linearGradient>
    <linearGradient
       id="linearGradient20"
       inkscape:collect="always">
      <stop
         style="stop-color:#ffffff;stop-opacity:1;"
         offset="0"
         id="stop19" />
      <stop
         style="stop-color:#606060;stop-opacity:1;"
         offset="1"
         id="stop20" />
    </linearGradient>
    <linearGradient
       id="linearGradient17"
       inkscape:collect="always">
      <stop
         style="stop-color:#313131;stop-opacity:1;"
         offset="0"
         id="stop17" />
      <stop
         style="stop-color:#ffffff;stop-opacity:1;"
         offset="1"
         id="stop18" />
    </linearGradient>
    <linearGradient
       id="linearGradient13"
       inkscape:collect="always">
      <stop
         style="stop-color:#3d3d3d;stop-opacity:1;"
         offset="0"
         id="stop13" />
      <stop
         style="stop-color:#ffffff;stop-opacity:1;"
         offset="1"
         id="stop14" />
    </linearGradient>
    <linearGradient
       id="linearGradient4"
       inkscape:collect="always">
      <stop
         style="stop-color:#470000;stop-opacity:1;"
         offset="0"
         id="stop4" />
      <stop
         style="stop-color:#cd1515;stop-opacity:1;"
         offset="0.51576906"
         id="stop6" />
      <stop
         style="stop-color:#ff5656;stop-opacity:1;"
         offset="1"
         id="stop5" />
    </linearGradient>
    <linearGradient
       inkscape:collect="always"
       xlink:href="#linearGradient9"
       id="linearGradient5"
       x1="3.96875"
       y1="157.42709"
       x2="205.05209"
       y2="3.9687502"
       gradientUnits="userSpaceOnUse" />
    <linearGradient
       inkscape:collect="always"
       xlink:href="#linearGradient13"
       id="linearGradient12"
       x1="174.625"
       y1="150.8125"
       x2="198.4375"
       y2="127.00001"
       gradientUnits="userSpaceOnUse" />
    <linearGradient
       inkscape:collect="always"
       xlink:href="#linearGradient17"
       id="linearGradient16"
       x1="10.583333"
       y1="150.8125"
       x2="34.395832"
       y2="127.00001"
       gradientUnits="userSpaceOnUse" />
    <linearGradient
       inkscape:collect="always"
       xlink:href="#linearGradient20"
       id="linearGradient18"
       gradientUnits="userSpaceOnUse"
       x1="10.583333"
       y1="150.8125"
       x2="34.395832"
       y2="127.00001"
       gradientTransform="matrix(0.63927513,0,0,0.64139914,8.1125539,49.841794)" />
    <linearGradient
       inkscape:collect="always"
       xlink:href="#linearGradient20"
       id="linearGradient21"
       gradientUnits="userSpaceOnUse"
       gradientTransform="matrix(0.63927513,0,0,0.64139914,172.15422,49.675117)"
       x1="10.583333"
       y1="150.8125"
       x2="34.395832"
       y2="127.00001" />
    <linearGradient
       inkscape:collect="always"
       xlink:href="#linearGradient23"
       id="linearGradient22"
       gradientUnits="userSpaceOnUse"
       x1="10.583333"
       y1="150.8125"
       x2="34.395832"
       y2="127.00001"
       gradientTransform="translate(-1.3229165,1.1562404)" />
    <linearGradient
       inkscape:collect="always"
       xlink:href="#linearGradient23"
       id="linearGradient24"
       gradientUnits="userSpaceOnUse"
       gradientTransform="translate(162.71875,1.239569)"
       x1="10.583333"
       y1="150.8125"
       x2="34.395832"
       y2="127.00001" />
    <linearGradient
       inkscape:collect="always"
       xlink:href="#linearGradient4"
       id="linearGradient6"
       gradientUnits="userSpaceOnUse"
       x1="3.96875"
       y1="157.42709"
       x2="205.05209"
       y2="3.9687502"
       gradientTransform="matrix(1.2525593,0,0,1.5324679,-26.203712,-33.846056)" />
  </defs>
  <g
     inkscape:label="Layer 1"
     inkscape:groupmode="layer"
     id="layer1"
     transform="translate(-3.6228572,-2.6458334)">
    <g
       id="g9"
       inkscape:export-filename="etch_a_sketch_no_background.svg"
       inkscape:export-xdpi="241.23726"
       inkscape:export-ydpi="241.23726">
      <path
         style="fill:#ba0000;fill-opacity:1;stroke:#ba0000;stroke-width:14.3;stroke-linecap:round;stroke-linejoin:round;stroke-dasharray:none;stroke-opacity:1"
         d="m 52.384332,574.69534 c -8.882378,-4.42627 -14.642515,-10.69667 -18.660847,-20.31389 -2.167436,-5.1874 -2.454889,-34.25872 -2.454889,-248.27289 0,-179.31768 0.484287,-244.013937 1.860975,-248.60891 2.409742,-8.043003 11.156323,-18.185124 19.557927,-22.678446 l 6.642659,-3.552608 330.324653,-0.489352 c 237.74571,-0.352203 332.65088,0.0097 338.62471,1.291134 10.67768,2.290526 19.9764,9.091796 25.66749,18.773701 l 4.51688,7.684319 0.42109,244.192212 0.4211,244.19221 -3.45071,8.02138 c -4.08882,9.50474 -14.63274,19.38133 -23.53978,22.04994 -4.73638,1.41905 -88.6175,1.88577 -338.92407,1.88577 H 60.761599 Z M 678.30903,471.9963 c 8.77846,-4.70185 15.03809,-11.20734 19.0559,-19.8043 3.35788,-7.18491 3.37233,-7.9131 3.37233,-169.97288 V 119.46207 l -3.71685,-7.54624 C 692.87803,103.50563 684.44595,95.341875 676.45174,92.001677 672.043,90.159589 625.74017,89.802786 394.91775,89.83221 129.96257,89.865985 118.3979,89.988302 112.24624,92.821924 103.87499,96.677953 98.159512,102.18374 93.540818,110.84108 l -3.743824,7.01747 -0.431064,161.04022 c -0.487936,182.28618 -1.090945,172.65738 11.60807,185.3564 12.72864,12.72863 -10.587808,11.82579 296.6984,11.48866 l 274.20154,-0.30082 z"
         id="path1"
         sodipodi:nodetypes="ssssscssscccssscsssscssssscssscs"
         transform="scale(0.26458333)" />
      <path
         id="rect4"
         style="fill:url(#linearGradient5);fill-opacity:1;stroke:none;stroke-width:1.06071;stroke-linecap:round;stroke-linejoin:round"
         d="m 33.89974,23.8125 c -5.588332,0 -10.08724,4.543166 -10.08724,10.186458 v 81.491662 c 0,5.6433 4.498908,10.18646 10.08724,10.18646 h 141.22135 c 5.58834,0 10.08724,-4.54316 10.08724,-10.18646 V 33.998958 c 0,-5.643292 -4.4989,-10.186458 -10.08724,-10.186458 z m 138.13007,3.163114 c 1.06491,-0.0094 2.1278,0.007 3.18327,0.143144 3.7234,0.596824 6.68535,4.034465 6.80837,7.789706 0.0273,24.871281 0.004,49.743025 0.0119,74.614566 -0.0733,2.0994 0.16836,4.22357 -0.16795,6.30504 -0.6692,3.63368 -4.01127,6.55456 -7.71529,6.66316 -44.6879,0.0248 -89.376538,0.004 -134.064681,0.0109 -2.098787,-0.0657 -4.217859,0.14591 -6.302975,-0.13591 -3.7106,-0.60874 -6.663055,-4.03507 -6.782532,-7.78402 -0.02735,-24.837944 -0.0036,-49.676623 -0.01137,-74.514828 0.06637,-2.071124 -0.146863,-4.162176 0.134875,-6.219776 0.586166,-3.701488 3.953895,-6.717487 7.706506,-6.847644 l 0.04186,-0.001 c 44.654575,-0.02478 89.309617,-0.0032 133.964437,-0.01033 1.06187,0.03206 2.12869,-0.0035 3.1936,-0.01292 z"
         sodipodi:nodetypes="sssssssssscccccccccccccs"
         inkscape:label="rect4" />
      <ellipse
         style="fill:url(#linearGradient22);fill-opacity:1;stroke:none;stroke-width:0.946055;stroke-linecap:round;stroke-linejoin:round"
         id="path10-8"
         cx="21.166666"
         cy="140.14584"
         rx="11.90625"
         ry="11.989585" />
      <ellipse
         style="fill:url(#linearGradient24);fill-opacity:1;stroke:none;stroke-width:0.946055;stroke-linecap:round;stroke-linejoin:round"
         id="path10-8-3"
         cx="185.20833"
         cy="140.22917"
         rx="11.90625"
         ry="11.989585" />
      <ellipse
         style="fill:url(#linearGradient16);fill-opacity:1;stroke:none;stroke-width:0.946055;stroke-linecap:round;stroke-linejoin:round"
         id="path10"
         cx="22.489582"
         cy="138.98959"
         rx="11.90625"
         ry="11.989585" />
      <ellipse
         style="fill:url(#linearGradient18);fill-opacity:1;stroke:#d0d0d0;stroke-width:0.79375;stroke-linecap:round;stroke-linejoin:round;stroke-dasharray:none;stroke-opacity:1"
         id="path10-1"
         cx="22.489582"
         cy="138.98959"
         rx="7.6113691"
         ry="7.6901097" />
      <ellipse
         style="fill:url(#linearGradient12);fill-opacity:1;stroke:none;stroke-width:0.946055;stroke-linecap:round;stroke-linejoin:round"
         id="path10-5"
         cx="186.53125"
         cy="138.82292"
         rx="11.90625"
         ry="11.989585" />
      <ellipse
         style="fill:url(#linearGradient21);fill-opacity:1;stroke:#d0d0d0;stroke-width:0.79375;stroke-linecap:round;stroke-linejoin:round;stroke-dasharray:none;stroke-opacity:1"
         id="path10-1-6"
         cx="186.53125"
         cy="138.82292"
         rx="7.6113691"
         ry="7.6901097" />
      <path
         id="path4"
         style="fill:url(#linearGradient6);fill-opacity:1;stroke:none;stroke-width:1.46957;stroke-linecap:round;stroke-linejoin:round"
         d="m 16.257723,2.6458334 c -6.9997169,0 -12.6348656,6.9622545 -12.6348656,15.6104176 V 143.13959 c 0,8.64817 5.6351487,15.61042 12.6348656,15.61042 H 193.14583 c 6.99972,0 12.63486,-6.96225 12.63486,-15.61042 V 18.256251 c 0,-8.6481631 -5.63514,-15.6104176 -12.63486,-15.6104176 z m 173.016097,4.84737 c 1.33386,-0.014414 2.66519,0.010722 3.98722,0.219363 4.66379,0.914613 8.37382,6.1826876 8.5279,11.9374716 0.0342,38.114434 0.004,76.229576 0.0149,114.344412 -0.0918,3.21726 0.21088,6.47248 -0.21036,9.66226 -0.83822,5.5685 -5.02435,10.04465 -9.66387,10.21108 -55.97425,0.038 -111.949404,0.006 -167.923951,0.0168 -2.628856,-0.10071 -5.283118,0.22361 -7.89485,-0.20829 C 11.463083,152.74339 7.7649582,147.49265 7.6153062,141.7475 7.5809952,103.68415 7.6107462,65.619685 7.6010112,27.555939 7.6841442,24.382008 7.4170568,21.17754 7.7699502,18.024335 8.5041578,12.351925 12.722437,7.730003 17.422805,7.5305423 l 0.05242,-0.00153 c 55.932499,-0.037974 111.865595,-0.00488 167.798395,-0.015828 1.33007,0.049143 2.66632,-0.00529 4.00018,-0.019806 z"
         sodipodi:nodetypes="sssssssssscccccccccccccs"
         inkscape:label="rect4" />
    </g>
  </g>
</svg>
